<svg xmlns="http://www.w3.org/2000/svg" width="25.25" height="28.831" viewBox="0 0 25.25 28.831">
  <g id="ic_bag_active" transform="translate(-316.75 -838.75)">
    <g id="ic_bag" transform="translate(184.298 14)" opacity="0.5">
      <path id="Path_4" data-name="Path 4" d="M81.747,0A4.856,4.856,0,0,0,76.9,4.849v4.8a.559.559,0,0,0,1.117,0c0-6.866,7.714.559,8.022.559a.559.559,0,0,0,.559-.559v-4.8A4.859,4.859,0,0,0,81.747,0Zm0,0" transform="translate(67.099 829)" fill="#005dff"/>
      <path id="Path_5" data-name="Path 5" d="M17.441,112.2H.559a.56.56,0,0,0-.559.559v14.961a2.8,2.8,0,0,0,2.793,2.793H15.207A2.794,2.794,0,0,0,18,127.719V112.758a.557.557,0,0,0-.559-.559Z" transform="translate(139.702 723.069)" fill="#005dff"/>
    </g>
    <g id="ic_bag-2" data-name="ic_bag" transform="translate(177.298 10)">
      <path id="Path_4-2" data-name="Path 4" d="M81.747,0A4.856,4.856,0,0,0,76.9,4.849v4.8a.559.559,0,0,0,1.117,0v-4.8a3.732,3.732,0,1,1,7.464,0v4.8a.559.559,0,0,0,1.117,0v-4.8A4.859,4.859,0,0,0,81.747,0Zm0,0" transform="translate(67.099 829)" fill="#010001" stroke="#000" stroke-width="0.5"/>
      <path id="Path_5-2" data-name="Path 5" d="M17.441,112.2H.559a.56.56,0,0,0-.559.559v14.961a2.8,2.8,0,0,0,2.793,2.793H15.207A2.794,2.794,0,0,0,18,127.719V112.758a.557.557,0,0,0-.559-.559Zm-.559,15.52a1.681,1.681,0,0,1-1.676,1.676H2.793a1.681,1.681,0,0,1-1.676-1.676v-14.4H16.883Zm0,0" transform="translate(139.702 723.069)" fill="#010001" stroke="#000" stroke-width="0.5"/>
    </g>
  </g>
</svg>
