<svg xmlns="http://www.w3.org/2000/svg" width="22.952" height="22" viewBox="0 0 22.952 22">
  <g id="ic_cart" transform="translate(-0.5 -0.5)">
    <path id="Path_28" data-name="Path 28" d="M13.9,30.952A.952.952,0,1,1,12.952,30,.952.952,0,0,1,13.9,30.952Z" transform="translate(-3.833 -10.405)" fill="none" stroke="#fff" stroke-linecap="round" stroke-linejoin="round" stroke-width="2"/>
    <path id="Path_29" data-name="Path 29" d="M30.4,30.952A.952.952,0,1,1,29.452,30,.952.952,0,0,1,30.4,30.952Z" transform="translate(-9.857 -10.405)" fill="none" stroke="#fff" stroke-linecap="round" stroke-linejoin="round" stroke-width="2"/>
    <path id="Path_30" data-name="Path 30" d="M1.5,1.5H5.31L7.862,14.252a1.9,1.9,0,0,0,1.9,1.533h9.257a1.9,1.9,0,0,0,1.9-1.533l1.524-7.99H6.262" fill="none" stroke="#fff" stroke-linecap="round" stroke-linejoin="round" stroke-width="2"/>
  </g>
</svg>
